<svg width="389" height="275" viewBox="0 0 389 275" fill="none" xmlns="http://www.w3.org/2000/svg">
<path d="M220 73C220 91.7777 202.278 107 183.5 107C164.722 107 154 89.7751 154 70.9974C154 52.2198 163.222 38 182 38C200.778 38 220 54.2224 220 73Z" fill="#FF476F"/>
<ellipse cx="216" cy="114" rx="43" ry="45" fill="#FF476F"/>
<path d="M243 103.923C243 129.371 223.748 150 200 150C176.252 150 155 114.524 155 89.0759C155 63.6281 191.252 65.0134 215 65.0134C241 70.6453 243 78.475 243 103.923Z" fill="#FF476F"/>
<path d="M267 124.5C267 148 244.748 169.5 221 169.5C197.252 169.5 183.5 142.5 176.5 124.5C176.5 99.6471 193.252 75.4999 217 75.4999C231 56.4999 265.5 93.9999 267 124.5Z" fill="#FF476F"/>
<path d="M276 146C276 160.912 257.216 163.5 242.857 163.5C228.497 163.5 216.857 151.411 216.857 136.5C216.857 121.588 228.497 84.5 242.857 84.5C257.216 84.5 276 131.088 276 146Z" fill="#FF476F"/>
<ellipse cx="210" cy="134" rx="26" ry="27" fill="#FF476F"/>
<path d="M328.906 243.843C329.949 245.864 327.347 247.781 325.726 246.186L240.543 162.366C239.666 161.503 239.769 160.06 240.76 159.33L271.149 136.944C272.14 136.214 273.549 136.544 274.113 137.637L328.906 243.843Z" fill="#FF476F"/>
<path d="M350.009 248.263C351.521 250.138 349.04 252.593 347.181 251.063L268.763 186.499C267.829 185.73 267.786 184.316 268.671 183.491L283.728 169.464C284.577 168.673 285.919 168.769 286.648 169.672L350.009 248.263Z" fill="#FF476F"/>
<path d="M327.058 203.026C328.427 204.796 326.3 207.136 324.408 205.941L226.565 144.136C225.046 143.176 225.464 140.856 227.223 140.488L271.238 131.264C272.006 131.103 272.798 131.407 273.262 132.04L293 159L327.058 203.026Z" fill="#FF476F"/>
<path d="M131.839 53.5185L182.947 48.4273L181.494 66.6464L131.839 53.5185Z" fill="#FF476F"/>
<path d="M129.839 62.5189L180.947 57.4276L179.494 75.6468L129.839 62.5189Z" fill="#FF476F"/>
<path d="M150.5 159.5L282.04 158L282.484 182.58L150.5 183.5L150.5 159.5Z" fill="#FF476F"/>
<path d="M21.0327 129.512C22.9192 128.175 25.292 127.72 27.5396 128.263L155.28 159.16C159.574 160.199 162.214 164.522 161.175 168.817L159.193 177.011C158.14 181.363 153.721 184.004 149.389 182.869L17.3129 148.256C10.7404 146.533 9.17154 137.919 14.7148 133.99L21.0327 129.512Z" fill="#FF476F"/>
<rect x="281.972" y="155.073" width="51.4457" height="23.0297" transform="rotate(-2.91352 281.972 155.073)" fill="#FF476F"/>
<path d="M323.207 160.291C323.207 156.224 326.258 152.805 330.298 152.343L371.774 147.598C374.946 147.235 378.03 148.793 379.62 151.561L382.841 157.166C385.655 162.065 382.643 168.258 377.052 169.069L332.356 175.551C327.531 176.251 323.207 172.51 323.207 167.634L323.207 160.291Z" fill="#FF476F"/>
<path fill-rule="evenodd" clip-rule="evenodd" d="M219.401 140.89C217.401 140.954 215.371 140.983 213.321 140.983C184.548 135.983 167.321 128.075 167.321 105.983C167.321 83.8918 181.143 76 206.548 76C226.438 76 248.589 86.0472 257.27 101.011C257.855 101.559 258.34 102.234 258.678 103.019L280.228 153.099C282.322 157.966 277.541 162.96 272.587 161.08L219.401 140.89Z" fill="#EC4468"/>
<path fill-rule="evenodd" clip-rule="evenodd" d="M105.807 18.7012C105.743 18.0663 105.109 17.6533 104.502 17.8513L94.1743 21.2235C93.7013 21.378 93.4231 21.8505 93.4958 22.3245C93.4967 22.3569 93.499 22.3896 93.5026 22.4226L94.6857 33.1831C94.2052 32.8857 93.6174 32.7107 92.9826 32.7107C91.3589 32.7107 90.0427 33.8553 90.0427 35.2671C90.0427 36.679 91.3589 37.8235 92.9826 37.8235C94.6062 37.8235 95.9224 36.679 95.9224 35.2671C95.9224 35.1868 95.9182 35.1074 95.9098 35.0291C95.9101 35.0219 95.9102 35.0146 95.9101 35.0073L95.8387 24.1918L104.034 21.3963L105.906 29.2576C105.462 29.0227 104.94 28.8874 104.381 28.8874C102.758 28.8874 101.442 30.0319 101.442 31.4438C101.442 32.8556 102.758 34.0001 104.381 34.0001C106.005 34.0001 107.321 32.8556 107.321 31.4438C107.321 31.2602 107.299 31.0811 107.257 30.9085L105.925 19.8614L105.807 18.7012Z" fill="#EC4468"/>
<path fill-rule="evenodd" clip-rule="evenodd" d="M84.6779 0.514004C84.6858 0.222311 84.9287 -0.00772748 85.2204 0.000198834C85.3933 0.00489876 85.5446 0.0922143 85.6375 0.223345L85.64 0.170716C85.64 0.118303 86.2801 0.721056 88.8407 3.55137C91.4013 6.38169 90.0676 9.76235 89.0808 11.0989H88.7593C88.7593 11.0989 88.475 10.9427 88.6007 10.7058C90.9019 6.36697 87.699 4.15081 85.6559 3.52368L85.3468 15.2998C85.3447 15.3799 85.3258 15.4538 85.294 15.5194C85.3012 15.5565 85.3071 15.5941 85.312 15.632C85.4746 16.9084 84.2687 18.1136 82.6183 18.3239C80.968 18.5343 79.4983 17.6701 79.3356 16.3937C79.173 15.1173 80.3789 13.9121 82.0293 13.7018C82.8914 13.5919 83.7042 13.7753 84.3071 14.1574L84.6779 0.514004Z" fill="#FF476F"/>
<path fill-rule="evenodd" clip-rule="evenodd" d="M116.678 34.514C116.686 34.2223 116.929 33.9923 117.22 34.0002C117.393 34.0049 117.545 34.0922 117.637 34.2233L117.64 34.1707C117.64 34.1183 118.28 34.7211 120.841 37.5514C123.401 40.3817 122.068 43.7623 121.081 45.0989H120.759C120.759 45.0989 120.475 44.9427 120.601 44.7058C122.902 40.367 119.699 38.1508 117.656 37.5237L117.347 49.2998C117.345 49.3799 117.326 49.4538 117.294 49.5194C117.301 49.5565 117.307 49.5941 117.312 49.632C117.475 50.9084 116.269 52.1136 114.618 52.3239C112.968 52.5343 111.498 51.6701 111.336 50.3937C111.173 49.1173 112.379 47.9121 114.029 47.7018C114.891 47.5919 115.704 47.7753 116.307 48.1574L116.678 34.514Z" fill="#FF476F"/>
</svg>
