<svg width="458" height="323" viewBox="0 0 458 323" fill="none" xmlns="http://www.w3.org/2000/svg">
<path d="M259.218 85.87C259.218 107.958 238.337 125.864 216.211 125.864C194.086 125.864 181.453 105.603 181.453 83.5143C181.453 61.4261 192.319 44.6994 214.444 44.6994C236.569 44.6994 259.218 63.7818 259.218 85.87Z" fill="#F0F0F0"/>
<ellipse cx="254.505" cy="134.098" rx="50.6654" ry="52.9335" fill="#F0F0F0"/>
<path d="M286.318 122.244C286.318 152.179 263.635 176.445 235.653 176.445C207.671 176.445 182.631 134.714 182.631 104.78C182.631 74.8458 225.345 76.4752 253.327 76.4752C283.962 83.1001 286.318 92.3102 286.318 122.244Z" fill="#F0F0F0"/>
<path d="M314.596 146.449C314.596 174.092 288.378 199.383 260.396 199.383C232.415 199.383 216.211 167.623 207.964 146.449C207.964 117.215 227.702 88.8106 255.683 88.8106C272.179 66.4609 312.829 110.572 314.596 146.449Z" fill="#F0F0F0"/>
<path d="M325.201 171.74C325.201 189.28 303.068 192.325 286.149 192.325C269.23 192.325 255.514 178.105 255.514 160.565C255.514 143.024 269.23 99.3974 286.149 99.3974C303.068 99.3974 325.201 154.199 325.201 171.74Z" fill="#F0F0F0"/>
<ellipse cx="247.435" cy="157.624" rx="30.6349" ry="31.7601" fill="#F0F0F0"/>
<path d="M388.557 288.805C389.601 290.824 386.998 292.739 385.375 291.145L283.127 190.7C282.249 189.837 282.352 188.395 283.343 187.666L319.821 160.841C320.812 160.112 322.222 160.441 322.787 161.534L388.557 288.805Z" fill="#F0F0F0"/>
<path d="M414.586 294.735C416.098 296.608 413.616 299.061 411.755 297.531L316.361 219.122C315.426 218.354 315.383 216.94 316.268 216.117L334.585 199.082C335.435 198.291 336.779 198.387 337.508 199.29L414.586 294.735Z" fill="#F0F0F0"/>
<path d="M386.592 240.408C387.962 242.177 385.832 244.515 383.939 243.321L266.213 169.08C264.693 168.122 265.112 165.803 266.872 165.435L319.814 154.36C320.583 154.199 321.375 154.502 321.839 155.135L345.232 187.032L386.592 240.408Z" fill="#F0F0F0"/>
<path d="M155.341 62.9539L215.56 56.9651L213.848 78.3963L155.341 62.9539Z" fill="#F0F0F0"/>
<path d="M152.985 73.541L213.203 67.5522L211.491 88.9834L152.985 73.541Z" fill="#F0F0F0"/>
<path d="M177.329 187.62L332.318 185.855L332.84 214.769L177.329 215.851L177.329 187.62Z" fill="#F0F0F0"/>
<path d="M25.3115 151.971C27.1981 150.636 29.5694 150.181 31.8151 150.723L184.346 187.555C188.641 188.592 191.279 192.913 190.239 197.207L187.233 209.616C186.178 213.968 181.757 216.61 177.425 215.476L17.4597 173.624C10.8838 171.904 9.31986 163.286 14.8707 159.359L25.3115 151.971Z" fill="#F0F0F0"/>
<rect width="60.6164" height="27.0899" transform="matrix(0.998712 -0.0507442 0.0509133 0.998703 332.238 182.412)" fill="#F0F0F0"/>
<path d="M380.824 187.288C380.824 183.223 383.873 179.807 387.912 179.345L438.982 173.513C442.153 173.151 445.236 174.707 446.828 177.474L452.122 186.673C454.941 191.571 451.931 197.766 446.339 198.576L389.976 206.737C385.15 207.436 380.824 203.692 380.824 198.816L380.824 187.288Z" fill="#F0F0F0"/>
<path fill-rule="evenodd" clip-rule="evenodd" d="M258.512 165.729C256.156 165.805 253.764 165.839 251.348 165.839C217.446 159.957 197.148 150.654 197.148 124.668C197.148 98.6819 213.434 89.3989 243.368 89.3989C266.346 89.3989 291.886 100.761 302.515 117.795C303.294 118.396 303.935 119.197 304.353 120.166L331.171 182.383C333.268 187.248 328.482 192.246 323.525 190.367L258.512 165.729Z" fill="#E3E1E1"/>
<path fill-rule="evenodd" clip-rule="evenodd" d="M124.647 21.7805C124.582 21.1457 123.948 20.7323 123.341 20.9302L110.789 25.0218C110.254 25.196 109.969 25.7757 110.157 26.3053L110.167 26.3341C110.168 26.3485 110.169 26.363 110.171 26.3775L111.565 39.0333C110.999 38.6834 110.306 38.4776 109.558 38.4776C107.645 38.4776 106.094 39.824 106.094 41.4847C106.094 43.1455 107.645 44.4918 109.558 44.4918C111.471 44.4918 113.022 43.1455 113.022 41.4847C113.022 41.3902 113.017 41.2968 113.007 41.2045C113.007 41.1959 113.008 41.1873 113.007 41.1786L112.923 28.4568L122.58 25.1685L124.785 34.4157C124.262 34.1394 123.647 33.9802 122.989 33.9802C121.076 33.9802 119.525 35.3265 119.525 36.9873C119.525 38.6481 121.076 39.9944 122.989 39.9944C124.902 39.9944 126.453 38.6481 126.453 36.9873C126.453 36.7714 126.427 36.5608 126.377 36.3578L124.807 23.3622L124.647 21.7805Z" fill="#E3E1E1"/>
<path fill-rule="evenodd" clip-rule="evenodd" d="M99.7729 0.605659C99.7822 0.261968 100.068 -0.00909023 100.412 0.0002335C100.616 0.0057619 100.794 0.10863 100.904 0.263125L100.907 0.200814C100.907 0.13916 101.661 0.848179 104.678 4.17748C107.695 7.50679 106.123 11.4835 104.961 13.0556H104.582C104.582 13.0556 104.247 12.8719 104.395 12.5932C107.106 7.48947 103.333 4.8826 100.925 4.1449L100.561 17.9962C100.559 18.0906 100.536 18.1778 100.499 18.2551C100.507 18.2989 100.514 18.3432 100.52 18.388C100.712 19.8894 99.2907 21.3071 97.3462 21.5545C95.4017 21.8019 93.67 20.7853 93.4783 19.2839C93.2867 17.7825 94.7076 16.3648 96.6522 16.1174C97.6679 15.9882 98.6256 16.2039 99.3361 16.6534L99.7729 0.605659Z" fill="#F0F0F0"/>
<path fill-rule="evenodd" clip-rule="evenodd" d="M137.477 40.5999C137.487 40.2562 137.773 39.9851 138.117 39.9945C138.32 40 138.499 40.1029 138.608 40.2574L138.611 40.195C138.611 40.1334 139.365 40.8424 142.382 44.1717C145.399 47.501 143.828 51.4777 142.665 53.0499H142.286C142.286 53.0499 141.951 52.8662 142.099 52.5875C144.811 47.4837 141.037 44.8768 138.63 44.1391L138.266 57.9904C138.263 58.0848 138.241 58.172 138.203 58.2493C138.212 58.2932 138.219 58.3375 138.225 58.3822C138.416 59.8836 136.995 61.3013 135.051 61.5487C133.106 61.7961 131.374 60.7795 131.183 59.2781C130.991 57.7767 132.412 56.3591 134.357 56.1117C135.372 55.9824 136.33 56.1981 137.041 56.6476L137.477 40.5999Z" fill="#F0F0F0"/>
</svg>
