<svg width="52" height="61" viewBox="0 0 52 61" fill="none" xmlns="http://www.w3.org/2000/svg">
<ellipse rx="10.8069" ry="10.4344" transform="matrix(0.97928 -0.202513 0.217971 0.975955 19.0436 44.3949)" fill="#FF476F"/>
<ellipse rx="3.91285" ry="3.77797" transform="matrix(0.978761 -0.204823 0.220458 0.975438 19.0912 44.3239)" fill="#F0F0F0"/>
<rect width="4.52383" height="3.88257" transform="matrix(0.97928 -0.202513 0.217971 0.975955 13.8136 31.354)" fill="#FF476F"/>
<rect width="4.46474" height="3.93624" transform="matrix(0.911335 0.429775 -0.450313 0.884154 23.5653 31.3195)" fill="#FF476F"/>
<rect width="4.36984" height="4.01951" transform="matrix(0.329028 0.946229 -0.950274 0.305958 31.7622 38.0483)" fill="#FF476F"/>
<rect width="4.42118" height="3.9749" transform="matrix(-0.407157 0.905044 -0.929911 -0.387355 32.4727 48.6295)" fill="#FF476F"/>
<rect width="4.52135" height="3.88485" transform="matrix(-0.945097 0.320838 -0.344937 -0.940821 26.1022 56.5302)" fill="#FF476F"/>
<rect width="4.46461" height="3.93635" transform="matrix(-0.910993 -0.430508 0.451056 -0.883772 14.6202 57.8741)" fill="#FF476F"/>
<rect width="4.36803" height="4.02106" transform="matrix(-0.248543 -0.969132 0.972495 -0.230931 5.65015 49.5125)" fill="#FF476F"/>
<rect width="4.43611" height="3.96173" transform="matrix(0.495675 -0.859402 0.888941 0.474733 5.81274 39.3394)" fill="#FF476F"/>
<ellipse rx="10.4161" ry="10.8246" transform="matrix(-0.0103565 -0.999946 0.999954 -0.00958941 14.491 13.9199)" fill="#FF476F"/>
<ellipse rx="3.77133" ry="3.91925" transform="matrix(-0.012905 -0.999919 0.999927 -0.0119491 14.4282 13.8607)" fill="#F0F0F0"/>
<rect width="4.36021" height="4.02776" transform="matrix(-0.0103565 -0.999946 0.999954 -0.00958941 0.165283 16.2375)" fill="#FF476F"/>
<rect width="4.4265" height="3.97021" transform="matrix(0.62553 -0.779718 0.803053 0.596527 2.08398 7.03735)" fill="#FF476F"/>
<rect width="4.52916" height="3.87765" transform="matrix(0.993125 -0.116359 0.125548 0.992176 10.5774 0.657959)" fill="#FF476F"/>
<rect width="4.47419" height="3.92775" transform="matrix(0.829949 0.558481 -0.587675 0.808643 21.493 2.1084)" fill="#FF476F"/>
<rect width="4.36303" height="4.02535" transform="matrix(0.142286 0.989927 -0.991167 0.131912 28.2606 9.6969)" fill="#FF476F"/>
<rect width="4.42664" height="3.97009" transform="matrix(-0.626177 0.779199 -0.802567 -0.597181 27.3286 20.7908)" fill="#FF476F"/>
<rect width="4.53108" height="3.87589" transform="matrix(-0.999229 0.0386923 -0.0417844 -0.999151 17.0178 27.5718)" fill="#FF476F"/>
<rect width="4.45796" height="3.94231" transform="matrix(-0.771892 -0.636347 0.66472 -0.746582 6.69275 25.3802)" fill="#FF476F"/>
<ellipse cx="37.3489" cy="25.8073" rx="10.8246" ry="10.416" fill="#FF476F"/>
<ellipse rx="3.91927" ry="3.77132" transform="matrix(0.999997 -0.00235985 0.00254864 0.999997 37.4112 25.7473)" fill="#F0F0F0"/>
<rect x="35.0833" y="12" width="4.53125" height="3.87573" fill="#FF476F"/>
<rect width="4.4665" height="3.93467" transform="matrix(0.796834 0.604198 -0.633574 0.773682 44.6248 13.9379)" fill="#FF476F"/>
<rect width="4.36234" height="4.02594" transform="matrix(0.115266 0.993335 -0.994277 0.106829 51.1694 22.1738)" fill="#FF476F"/>
<rect width="4.41872" height="3.97706" transform="matrix(-0.596021 0.802969 -0.824123 -0.566411 49.5536 32.6622)" fill="#FF476F"/>
<rect width="4.52853" height="3.87823" transform="matrix(-0.992481 0.1224 -0.132028 -0.991246 41.6002 39.0985)" fill="#FF476F"/>
<path d="M30.081 38.0912L27 36L29.0198 32.3476L32.5765 35.049L30.081 38.0912Z" fill="#FF476F"/>
<rect width="3.66755" height="4.02764" transform="matrix(-0.0314348 -0.999506 0.999576 -0.0291083 23.137 28.1025)" fill="#FF476F"/>
<rect width="4.4351" height="3.96263" transform="matrix(0.672419 -0.740171 0.765263 0.643717 25.5172 18.1895)" fill="#FF476F"/>
</svg>
