<svg width="52" height="61" viewBox="0 0 52 61" fill="none" xmlns="http://www.w3.org/2000/svg">
<ellipse rx="10.8069" ry="10.4344" transform="matrix(0.97928 -0.202513 0.217971 0.975955 18.2253 44.1151)" fill="#C4C4C4"/>
<ellipse rx="3.91285" ry="3.77797" transform="matrix(0.978761 -0.204823 0.220458 0.975438 18.273 44.0441)" fill="#F0F0F0"/>
<rect width="4.52383" height="3.88257" transform="matrix(0.97928 -0.202513 0.217971 0.975955 12.9954 31.0742)" fill="#C4C4C4"/>
<rect width="4.46474" height="3.93624" transform="matrix(0.911335 0.429775 -0.450313 0.884154 22.7471 31.0397)" fill="#C4C4C4"/>
<path d="M31.5 39L32.6301 42.6877L28.8324 43.9105L27.4726 40L31.5 39Z" fill="#C4C4C4"/>
<rect width="4.42118" height="3.9749" transform="matrix(-0.407157 0.905044 -0.929911 -0.387355 31.6544 48.3497)" fill="#C4C4C4"/>
<rect width="4.52135" height="3.88485" transform="matrix(-0.945097 0.320838 -0.344937 -0.940821 25.2839 56.2504)" fill="#C4C4C4"/>
<rect width="4.46461" height="3.93635" transform="matrix(-0.910993 -0.430508 0.451056 -0.883772 13.802 57.5944)" fill="#C4C4C4"/>
<rect width="4.36803" height="4.02106" transform="matrix(-0.248543 -0.969132 0.972495 -0.230931 4.83191 49.2327)" fill="#C4C4C4"/>
<rect width="4.43611" height="3.96173" transform="matrix(0.495675 -0.859402 0.888941 0.474733 4.99451 39.0596)" fill="#C4C4C4"/>
<ellipse rx="10.4161" ry="10.8246" transform="matrix(-0.0103565 -0.999946 0.999954 -0.00958941 14.491 13.9199)" fill="#C4C4C4"/>
<ellipse rx="3.77133" ry="3.91925" transform="matrix(-0.012905 -0.999919 0.999927 -0.0119491 14.4282 13.8607)" fill="#F0F0F0"/>
<rect width="4.36021" height="4.02776" transform="matrix(-0.0103565 -0.999946 0.999954 -0.00958941 0.165283 16.2375)" fill="#C4C4C4"/>
<rect width="4.4265" height="3.97021" transform="matrix(0.62553 -0.779718 0.803053 0.596527 2.08398 7.03735)" fill="#C4C4C4"/>
<rect width="4.52916" height="3.87765" transform="matrix(0.993125 -0.116359 0.125548 0.992176 10.5774 0.657959)" fill="#C4C4C4"/>
<rect width="4.47419" height="3.92775" transform="matrix(0.829949 0.558481 -0.587675 0.808643 21.493 2.1084)" fill="#C4C4C4"/>
<rect width="4.36303" height="4.02535" transform="matrix(0.142286 0.989927 -0.991167 0.131912 28.2606 9.6969)" fill="#C4C4C4"/>
<rect width="4.42664" height="3.97009" transform="matrix(-0.626177 0.779199 -0.802567 -0.597181 27.3286 20.7908)" fill="#C4C4C4"/>
<rect width="4.53108" height="3.87589" transform="matrix(-0.999229 0.0386923 -0.0417844 -0.999151 17.0178 27.5718)" fill="#C4C4C4"/>
<rect width="4.45796" height="3.94231" transform="matrix(-0.771892 -0.636347 0.66472 -0.746582 6.69275 25.3802)" fill="#C4C4C4"/>
<ellipse cx="37.3489" cy="26.8074" rx="10.8246" ry="10.416" fill="#C4C4C4"/>
<ellipse rx="3.91927" ry="3.77132" transform="matrix(0.999997 -0.00235985 0.00254864 0.999997 37.4112 26.7474)" fill="#F0F0F0"/>
<rect x="35.0833" y="13" width="4.53125" height="3.87573" fill="#C4C4C4"/>
<rect width="4.4665" height="3.93467" transform="matrix(0.796834 0.604198 -0.633574 0.773682 44.6248 14.9379)" fill="#C4C4C4"/>
<rect width="4.36234" height="4.02594" transform="matrix(0.115266 0.993335 -0.994277 0.106829 51.1696 23.1738)" fill="#C4C4C4"/>
<rect width="4.41872" height="3.97706" transform="matrix(-0.596021 0.802969 -0.824123 -0.566411 49.5536 33.6624)" fill="#C4C4C4"/>
<rect width="4.52853" height="3.87823" transform="matrix(-0.992481 0.1224 -0.132028 -0.991246 41.6002 40.0986)" fill="#C4C4C4"/>
<rect width="4.46636" height="3.93479" transform="matrix(-0.796342 -0.604847 0.634216 -0.773156 30.0811 39.0913)" fill="#C4C4C4"/>
<rect width="4.36035" height="4.02764" transform="matrix(-0.0314348 -0.999506 0.999576 -0.0291083 23.1371 29.1025)" fill="#C4C4C4"/>
<path d="M26.0603 17.4337L28.0497 14.9684L31.7841 18.1873L29 21L26.0603 17.4337Z" fill="#C4C4C4"/>
</svg>
